# xmcd CD database file generated by MAGIX_Freedb v0.9beta0
# 
# Track frame offsets:
#      150
#      21240
#      57352
#      73837
#      105242
#      119465
#      133740
#      146145
#      176045
#      195225
#      230025
#      247075
#      259867
#      281860
# 
# Disc length: 4210 seconds
# 
# Revision: 1 
# Processed by: cddbd v1.4PL0 Copyright (c) Steve Scherf et al.
# Submitted via: MAGIX_Freedb v0.9beta0
# 
DISCID=dc10700e
DTITLE=Musica Mystica - Die Ruhe und die Kraft von Jahrhunderten
DYEAR=1900
DGENRE=
TTITLE0=Musica Mystica - Haydn - Die Schöpfung -Die Vorstellung des Chaos
TTITLE1=Bach - Messe h-Moll BWV 232 - Et incarnatus est - Crucifixus
TTITLE2=Vivaldi - Stabat Mater f-Moll RV 621 - Stabat Mater
TTITLE3=Bach - Motette BWV 229 - ,, Komm,Jesus,komm"
TTITLE4=Mozart - Ave verum Corpus" D-Dur KV 618
TTITLE5=Händel - Der Messias - ,,Kommt her und seht das Lamm"
TTITLE6=Haydn - Salve Regina
TTITLE7=Beethoven - Missa Solemnis D-Dur op.123 - Agnus Dei
TTITLE8=Haydn - Nelsonmesse d-Moll - Kyrie
TTITLE9=Mendelsohn - Elias - ,,Hilf,Herr"
TTITLE10=Brahms - Ein Deutsches Requiem op.45 - Herr, lehre doch mich"
TTITLE11=Schubert - Deutsche Messe D872 - ,, Wohin soll ich mich wenden"
TTITLE12=Schubert - Messe Es-Dur D950 - Benedictus
TTITLE13=Bruckner - Messe Nr.2 e-Moll - Kyrie
EXTD=
EXTT0=
EXTT1=
EXTT2=
EXTT3=
EXTT4=
EXTT5=
EXTT6=
EXTT7=
EXTT8=
EXTT9=
EXTT10=
EXTT11=
EXTT12=
EXTT13=
PLAYORDER=
